{"accessors" : [{"bufferView" : 0, "byteOffset" : 0, "componentType" : 5123, "count" : 456, "type" : "SCALAR", "max" : [363], "min" : [0]}, {"bufferView" : 1, "byteOffset" : 0, "componentType" : 5126, "count" : 364, "type" : "VEC3", "max" : [0.9975234866142273, 0.15000003576278687, 0.2360229790210724], "min" : [0.7285817861557007, 2.2351741790771484E-08, -0.2360229790210724], "name" : "POSITION"}, {"bufferView" : 1, "byteOffset" : 12, "componentType" : 5126, "count" : 364, "type" : "VEC3", "max" : [0.7313914895057678, 1.0000044107437134, 0.7313914895057678], "min" : [-0.7313914895057678, -1.0000044107437134, -0.7313914895057678], "name" : "NORMAL"}, {"bufferView" : 1, "byteOffset" : 24, "componentType" : 5126, "count" : 364, "type" : "VEC2", "max" : [0.8502705097198486, 2], "min" : [0, 1], "name" : "TEXCOORD_0"}, {"bufferView" : 0, "byteOffset" : 912, "componentType" : 5123, "count" : 1368, "type" : "SCALAR", "max" : [1100], "min" : [0]}, {"bufferView" : 2, "byteOffset" : 0, "componentType" : 5126, "count" : 1101, "type" : "VEC3", "max" : [0.9814961552619934, 0.15000000596046448, 0.029999971389770508], "min" : [-1.0011670589447021, 0, -0.029999971389770508], "name" : "POSITION"}, {"bufferView" : 2, "byteOffset" : 12, "componentType" : 5126, "count" : 1101, "type" : "VEC3", "max" : [0.7279788851737976, 1.0000044107437134, 0.7279787659645081], "min" : [-0.7279788851737976, -1.0000044107437134, -0.7279787659645081], "name" : "NORMAL"}, {"bufferView" : 2, "byteOffset" : 24, "componentType" : 5126, "count" : 1101, "type" : "VEC2", "max" : [1, 2], "min" : [0, 1], "name" : "TEXCOORD_0"}], "asset" : {"generator" : "Aspose.3D 24.1.0", "version" : "2.0"}, "buffers" : [{"uri" : "data:application/octet-stream;base64,", "byteLength" : 62028}], "bufferViews" : [{"buffer" : 0, "byteOffset" : 0, "byteLength" : 3648, "target" : 34963}, {"buffer" : 0, "byteOffset" : 3652, "byteLength" : 14592, "byteStride" : 32, "target" : 34962}, {"buffer" : 0, "byteOffset" : 18248, "byteLength" : 43776, "byteStride" : 32, "target" : 34962}], "materials" : [{"name" : "Material", "pbrMetallicRoughness" : {"baseColorFactor" : [0, 0, 0, 1], "metallicFactor" : 1, "roughnessFactor" : 1}, "emissiveFactor" : [0.005605343729257584, 0.02624119259417057, 0.04817182943224907], "alphaMode" : "OPAQUE", "doubleSided" : true}, {"name" : "Material", "pbrMetallicRoughness" : {"baseColorFactor" : [0, 0, 0, 1], "metallicFactor" : 1, "roughnessFactor" : 1}, "emissiveFactor" : [0.005605343729257584, 0.02624119259417057, 0.04817182943224907], "alphaMode" : "OPAQUE", "doubleSided" : true}], "meshes" : [{"primitives" : [{"attributes" : {"POSITION" : 1, "NORMAL" : 2, "TEXCOORD_0" : 3}, "indices" : 0, "material" : 0, "mode" : 4}]}, {"primitives" : [{"attributes" : {"POSITION" : 5, "NORMAL" : 6, "TEXCOORD_0" : 7}, "indices" : 4, "material" : 1, "mode" : 4}]}], "nodes" : [{"mesh" : 0, "name" : "Plane.010"}, {"mesh" : 1, "name" : "Plane.011"}], "scene" : 0, "scenes" : [{"nodes" : [0, 1]}]}