{
	"asset":{
		"generator":"Khronos glTF Blender I/O v3.6.28",
		"version":"2.0"
	},
	"scene":0,
	"scenes":[
		{
			"name":"Scene",
			"nodes":[
				0
			]
		}
	],
	"nodes":[
		{
			"mesh":0,
			"name":"Plane.015",
			"rotation":[
				0.7071068286895752,
				0,
				0,
				0.7071068286895752
			]
		}
	],
	"materials":[
		{
			"doubleSided":true,
			"emissiveFactor":[
				0.005605343729257584,
				0.02624119259417057,
				0.04817182943224907
			],
			"name":"Material",
			"pbrMetallicRoughness":{
				"baseColorFactor":[
					0,
					0,
					0,
					1
				]
			}
		}
	],
	"meshes":[
		{
			"name":"Plane.024",
			"primitives":[
				{
					"attributes":{
						"POSITION":0,
						"NORMAL":1,
						"TEXCOORD_0":2
					},
					"indices":3,
					"material":0
				}
			]
		}
	],
	"accessors":[
		{
			"bufferView":0,
			"componentType":5126,
			"count":610,
			"max":[
				0.18716001510620117,
				0.06627616286277771,
				0.9521024823188782
			],
			"min":[
				-0.7037206888198853,
				-0.06627606600522995,
				-2.2369275093078613
			],
			"type":"VEC3"
		},
		{
			"bufferView":1,
			"componentType":5126,
			"count":610,
			"type":"VEC3"
		},
		{
			"bufferView":2,
			"componentType":5126,
			"count":610,
			"type":"VEC2"
		},
		{
			"bufferView":3,
			"componentType":5123,
			"count":3417,
			"type":"SCALAR"
		}
	],
	"bufferViews":[
		{
			"buffer":0,
			"byteLength":7320,
			"byteOffset":0,
			"target":34962
		},
		{
			"buffer":0,
			"byteLength":7320,
			"byteOffset":7320,
			"target":34962
		},
		{
			"buffer":0,
			"byteLength":4880,
			"byteOffset":14640,
			"target":34962
		},
		{
			"buffer":0,
			"byteLength":6834,
			"byteOffset":19520,
			"target":34963
		}
	],
	"buffers":[
		{
			"byteLength":26356,
			"uri":"data:application/octet-stream;base64,"
		}
	]
}
