{
	"asset":{
		"generator":"Khronos glTF Blender I/O v3.6.28",
		"version":"2.0"
	},
	"scene":0,
	"scenes":[
		{
			"name":"Scene",
			"nodes":[
				0,
				1
			]
		}
	],
	"nodes":[
		{
			"mesh":0,
			"name":"Plane.010"
		},
		{
			"mesh":1,
			"name":"Plane.011"
		}
	],
	"materials":[
		{
			"doubleSided":true,
			"emissiveFactor":[
				0.005605343729257584,
				0.02624119259417057,
				0.04817182943224907
			],
			"name":"Material",
			"pbrMetallicRoughness":{
				"baseColorFactor":[
					0,
					0,
					0,
					1
				]
			}
		}
	],
	"meshes":[
		{
			"name":"Plane.018",
			"primitives":[
				{
					"attributes":{
						"POSITION":0,
						"NORMAL":1,
						"TEXCOORD_0":2
					},
					"indices":3,
					"material":0
				}
			]
		},
		{
			"name":"Plane.019",
			"primitives":[
				{
					"attributes":{
						"POSITION":4,
						"NORMAL":5,
						"TEXCOORD_0":6
					},
					"indices":7,
					"material":0
				}
			]
		}
	],
	"accessors":[
		{
			"bufferView":0,
			"componentType":5126,
			"count":78,
			"max":[
				1.3670672178268433,
				-0.23157453536987305,
				0.07393094152212143
			],
			"min":[
				1.0611852407455444,
				-0.7684580683708191,
				-0.0739375427365303
			],
			"type":"VEC3"
		},
		{
			"bufferView":1,
			"componentType":5126,
			"count":78,
			"type":"VEC3"
		},
		{
			"bufferView":2,
			"componentType":5126,
			"count":78,
			"type":"VEC2"
		},
		{
			"bufferView":3,
			"componentType":5123,
			"count":456,
			"type":"SCALAR"
		},
		{
			"bufferView":4,
			"componentType":5126,
			"count":240,
			"max":[
				1.3206031322479248,
				-0.4658793807029724,
				0.0728020966053009
			],
			"min":[
				-1.1626211404800415,
				-0.5341205596923828,
				-0.07280214130878448
			],
			"type":"VEC3"
		},
		{
			"bufferView":5,
			"componentType":5126,
			"count":240,
			"type":"VEC3"
		},
		{
			"bufferView":6,
			"componentType":5126,
			"count":240,
			"type":"VEC2"
		},
		{
			"bufferView":7,
			"componentType":5123,
			"count":1368,
			"type":"SCALAR"
		}
	],
	"bufferViews":[
		{
			"buffer":0,
			"byteLength":936,
			"byteOffset":0,
			"target":34962
		},
		{
			"buffer":0,
			"byteLength":936,
			"byteOffset":936,
			"target":34962
		},
		{
			"buffer":0,
			"byteLength":624,
			"byteOffset":1872,
			"target":34962
		},
		{
			"buffer":0,
			"byteLength":912,
			"byteOffset":2496,
			"target":34963
		},
		{
			"buffer":0,
			"byteLength":2880,
			"byteOffset":3408,
			"target":34962
		},
		{
			"buffer":0,
			"byteLength":2880,
			"byteOffset":6288,
			"target":34962
		},
		{
			"buffer":0,
			"byteLength":1920,
			"byteOffset":9168,
			"target":34962
		},
		{
			"buffer":0,
			"byteLength":2736,
			"byteOffset":11088,
			"target":34963
		}
	],
	"buffers":[
		{
			"byteLength":13824,
			"uri":"data:application/octet-stream;base64,"
		}
	]
}
