{"accessors" : [{"bufferView" : 0, "byteOffset" : 0, "componentType" : 5123, "count" : 456, "type" : "SCALAR", "max" : [363], "min" : [0]}, {"bufferView" : 1, "byteOffset" : 0, "componentType" : 5126, "count" : 364, "type" : "VEC3", "max" : [0.8457775115966797, 0.060525260865688324, -0.6001734733581543], "min" : [0.628740668296814, -0.06052524596452713, -0.9811160564422607], "name" : "POSITION"}, {"bufferView" : 1, "byteOffset" : 12, "componentType" : 5126, "count" : 364, "type" : "VEC3", "max" : [0.7313914895057678, 1.0000044107437134, 0.7313914895057678], "min" : [-0.7313914895057678, -1.0000044107437134, -0.7313914895057678], "name" : "NORMAL"}, {"bufferView" : 1, "byteOffset" : 24, "componentType" : 5126, "count" : 364, "type" : "VEC2", "max" : [0.8502705097198486, 2], "min" : [0, 1], "name" : "TEXCOORD_0"}, {"bufferView" : 0, "byteOffset" : 912, "componentType" : 5123, "count" : 3060, "type" : "SCALAR", "max" : [2476], "min" : [0]}, {"bufferView" : 2, "byteOffset" : 0, "componentType" : 5126, "count" : 2477, "type" : "VEC3", "max" : [0.8328433632850647, 0.06052536517381668, 0.9963439702987671], "min" : [-0.8527734875679016, -0.06052513048052788, -0.8148548007011414], "name" : "POSITION"}, {"bufferView" : 2, "byteOffset" : 12, "componentType" : 5126, "count" : 2477, "type" : "VEC3", "max" : [0.7283446192741394, 1.0000044107437134, 0.7290247082710266], "min" : [-0.7283446192741394, -1.0000044107437134, -0.7290247082710266], "name" : "NORMAL"}, {"bufferView" : 2, "byteOffset" : 24, "componentType" : 5126, "count" : 2477, "type" : "VEC2", "max" : [1, 2], "min" : [0, 1], "name" : "TEXCOORD_0"}], "asset" : {"generator" : "Aspose.3D 24.1.0", "version" : "2.0"}, "buffers" : [{"uri" : "data:application/octet-stream;base64,", "byteLength" : 119556}], "bufferViews" : [{"buffer" : 0, "byteOffset" : 0, "byteLength" : 7032, "target" : 34963}, {"buffer" : 0, "byteOffset" : 7036, "byteLength" : 14592, "byteStride" : 32, "target" : 34962}, {"buffer" : 0, "byteOffset" : 21632, "byteLength" : 97920, "byteStride" : 32, "target" : 34962}], "materials" : [{"name" : "Material", "pbrMetallicRoughness" : {"baseColorFactor" : [0, 0, 0, 1], "metallicFactor" : 1, "roughnessFactor" : 1}, "emissiveFactor" : [0.005605343729257584, 0.02624119259417057, 0.04817182943224907], "alphaMode" : "OPAQUE", "doubleSided" : true}, {"name" : "Material", "pbrMetallicRoughness" : {"baseColorFactor" : [0, 0, 0, 1], "metallicFactor" : 1, "roughnessFactor" : 1}, "emissiveFactor" : [0.005605343729257584, 0.02624119259417057, 0.04817182943224907], "alphaMode" : "OPAQUE", "doubleSided" : true}], "meshes" : [{"primitives" : [{"attributes" : {"POSITION" : 1, "NORMAL" : 2, "TEXCOORD_0" : 3}, "indices" : 0, "material" : 0, "mode" : 4}]}, {"primitives" : [{"attributes" : {"POSITION" : 5, "NORMAL" : 6, "TEXCOORD_0" : 7}, "indices" : 4, "material" : 1, "mode" : 4}]}], "nodes" : [{"mesh" : 0, "name" : "Plane.015"}, {"mesh" : 1, "name" : "Plane.016"}], "scene" : 0, "scenes" : [{"nodes" : [0, 1]}]}