{"accessors" : [{"bufferView" : 0, "byteOffset" : 0, "componentType" : 5123, "count" : 96, "type" : "SCALAR", "max" : [79], "min" : [0]}, {"bufferView" : 1, "byteOffset" : 0, "componentType" : 5126, "count" : 80, "type" : "VEC3", "max" : [0.9899491667747498, 0.9899494051933289, 0.07499992847442627], "min" : [-0.9899491667747498, -0.9899491667747498, -0.07500016689300537], "name" : "POSITION"}, {"bufferView" : 1, "byteOffset" : 12, "componentType" : 5126, "count" : 80, "type" : "VEC3", "max" : [0.7071098685264587, 0.7071098685264587, 1.0000044107437134], "min" : [-0.7071098685264587, -0.7071098685264587, -1.0000044107437134], "name" : "NORMAL"}, {"bufferView" : 1, "byteOffset" : 24, "componentType" : 5126, "count" : 80, "type" : "VEC2", "max" : [0, 2], "min" : [0, 2], "name" : "TEXCOORD_0"}, {"bufferView" : 0, "byteOffset" : 192, "componentType" : 5123, "count" : 120, "type" : "SCALAR", "max" : [99], "min" : [0]}, {"bufferView" : 2, "byteOffset" : 0, "componentType" : 5126, "count" : 100, "type" : "VEC3", "max" : [0.40895429253578186, 0.4300001263618469, 0.07499992847442627], "min" : [-0.40895429253578186, -0.34787723422050476, -0.0750001072883606], "name" : "POSITION"}, {"bufferView" : 2, "byteOffset" : 12, "componentType" : 5126, "count" : 100, "type" : "VEC3", "max" : [0.9510698318481445, 1.0000044107437134, 1.0000044107437134], "min" : [-0.9510698318481445, -1.0000044107437134, -1.0000044107437134], "name" : "NORMAL"}, {"bufferView" : 2, "byteOffset" : 24, "componentType" : 5126, "count" : 100, "type" : "VEC2", "max" : [0, 2], "min" : [0, 2], "name" : "TEXCOORD_0"}, {"bufferView" : 0, "byteOffset" : 432, "componentType" : 5123, "count" : 1536, "type" : "SCALAR", "max" : [1211], "min" : [0]}, {"bufferView" : 3, "byteOffset" : 0, "componentType" : 5126, "count" : 1212, "type" : "VEC3", "max" : [0.9999999403953552, 1.000000238418579, 0.1376936435699463], "min" : [-0.9999999403953552, -0.9999998211860657, -0.13769370317459106], "name" : "POSITION"}, {"bufferView" : 3, "byteOffset" : 12, "componentType" : 5126, "count" : 1212, "type" : "VEC3", "max" : [0.7178277969360352, 0.7178277969360352, 0.7183440327644348], "min" : [-0.7178277969360352, -0.7178277969360352, -0.7183440327644348], "name" : "NORMAL"}, {"bufferView" : 3, "byteOffset" : 24, "componentType" : 5126, "count" : 1212, "type" : "VEC2", "max" : [0, 2], "min" : [0, 2], "name" : "TEXCOORD_0"}], "asset" : {"generator" : "Aspose.3D 24.1.0", "version" : "2.0"}, "buffers" : [{"uri" : "data:application/octet-stream;base64,", "byteLength" : 59584}], "bufferViews" : [{"buffer" : 0, "byteOffset" : 0, "byteLength" : 3504, "target" : 34963}, {"buffer" : 0, "byteOffset" : 3508, "byteLength" : 3072, "byteStride" : 32, "target" : 34962}, {"buffer" : 0, "byteOffset" : 6584, "byteLength" : 3840, "byteStride" : 32, "target" : 34962}, {"buffer" : 0, "byteOffset" : 10428, "byteLength" : 49152, "byteStride" : 32, "target" : 34962}], "materials" : [{"name" : "Material", "pbrMetallicRoughness" : {"baseColorFactor" : [0, 0, 0, 1], "metallicFactor" : 1, "roughnessFactor" : 1}, "emissiveFactor" : [0.005605343729257584, 0.02624119259417057, 0.04817182943224907], "alphaMode" : "OPAQUE", "doubleSided" : true}, {"name" : "Material", "pbrMetallicRoughness" : {"baseColorFactor" : [0, 0, 0, 1], "metallicFactor" : 1, "roughnessFactor" : 1}, "emissiveFactor" : [0.005605343729257584, 0.02624119259417057, 0.04817182943224907], "alphaMode" : "OPAQUE", "doubleSided" : true}, {"name" : "Material", "pbrMetallicRoughness" : {"baseColorFactor" : [0, 0, 0, 1], "metallicFactor" : 1, "roughnessFactor" : 1}, "emissiveFactor" : [0.005605343729257584, 0.02624119259417057, 0.04817182943224907], "alphaMode" : "OPAQUE", "doubleSided" : true}], "meshes" : [{"primitives" : [{"attributes" : {"POSITION" : 1, "NORMAL" : 2, "TEXCOORD_0" : 3}, "indices" : 0, "material" : 0, "mode" : 4}]}, {"primitives" : [{"attributes" : {"POSITION" : 5, "NORMAL" : 6, "TEXCOORD_0" : 7}, "indices" : 4, "material" : 1, "mode" : 4}]}, {"primitives" : [{"attributes" : {"POSITION" : 9, "NORMAL" : 10, "TEXCOORD_0" : 11}, "indices" : 8, "material" : 2, "mode" : 4}]}], "nodes" : [{"mesh" : 0, "name" : "Plane.008"}, {"mesh" : 1, "name" : "Circle.018"}, {"matrix" : [0.5446876883506775, 0, 0, 0, 0, 0.5446876883506775, 0, 0, 0, 0, 0.5446876883506775, 0, 0, 0, 0, 1], "mesh" : 2, "name" : "Circle.019"}], "scene" : 0, "scenes" : [{"nodes" : [0, 1, 2]}]}