{"accessors" : [{"bufferView" : 0, "byteOffset" : 0, "componentType" : 5123, "count" : 156, "type" : "SCALAR", "max" : [131], "min" : [0]}, {"bufferView" : 1, "byteOffset" : 0, "componentType" : 5126, "count" : 132, "type" : "VEC3", "max" : [1.1770073175430298, 0.8264607191085815, 0.25082242488861084], "min" : [-1.1770073175430298, -0.825472354888916, -0.2491776943206787], "name" : "POSITION"}, {"bufferView" : 1, "byteOffset" : 12, "componentType" : 5126, "count" : 132, "type" : "VEC3", "max" : [1.0000044107437134, 1.0000044107437134, 1.0000044107437134], "min" : [-1.0000044107437134, -0.8019670248031616, -1.0000044107437134], "name" : "NORMAL"}, {"bufferView" : 1, "byteOffset" : 24, "componentType" : 5126, "count" : 132, "type" : "VEC2", "max" : [0, 2], "min" : [0, 2], "name" : "TEXCOORD_0"}, {"bufferView" : 0, "byteOffset" : 312, "componentType" : 5123, "count" : 1536, "type" : "SCALAR", "max" : [1279], "min" : [0]}, {"bufferView" : 2, "byteOffset" : 0, "componentType" : 5126, "count" : 1280, "type" : "VEC3", "max" : [0.9999998211860657, 1.0002471208572388, 0.07524693012237549], "min" : [-0.9999998211860657, -0.9997529983520508, -0.0747532844543457], "name" : "POSITION"}, {"bufferView" : 2, "byteOffset" : 12, "componentType" : 5126, "count" : 1280, "type" : "VEC3", "max" : [0.9987983107566833, 0.9987983107566833, 1.0000044107437134], "min" : [-0.9987983107566833, -0.9987983107566833, -1.0000044107437134], "name" : "NORMAL"}, {"bufferView" : 2, "byteOffset" : 24, "componentType" : 5126, "count" : 1280, "type" : "VEC2", "max" : [0, 2], "min" : [0, 2], "name" : "TEXCOORD_0"}, {"bufferView" : 0, "byteOffset" : 3384, "componentType" : 5123, "count" : 1536, "type" : "SCALAR", "max" : [1279], "min" : [0]}, {"bufferView" : 3, "byteOffset" : 0, "componentType" : 5126, "count" : 1280, "type" : "VEC3", "max" : [0.9026513695716858, 0.9028985500335693, 0.07524693012237549], "min" : [-0.9026513695716858, -0.9024045467376709, -0.07475322484970093], "name" : "POSITION"}, {"bufferView" : 3, "byteOffset" : 12, "componentType" : 5126, "count" : 1280, "type" : "VEC3", "max" : [0.9987983107566833, 0.9987983107566833, 1.0000044107437134], "min" : [-0.9987983107566833, -0.9987983107566833, -1.0000044107437134], "name" : "NORMAL"}, {"bufferView" : 3, "byteOffset" : 24, "componentType" : 5126, "count" : 1280, "type" : "VEC2", "max" : [0, 2], "min" : [0, 2], "name" : "TEXCOORD_0"}], "asset" : {"generator" : "Aspose.3D 24.1.0", "version" : "2.0"}, "buffers" : [{"uri" : "data:application/octet-stream;base64,", "byteLength" : 109768}], "bufferViews" : [{"buffer" : 0, "byteOffset" : 0, "byteLength" : 6456, "target" : 34963}, {"buffer" : 0, "byteOffset" : 6460, "byteLength" : 4992, "byteStride" : 32, "target" : 34962}, {"buffer" : 0, "byteOffset" : 11456, "byteLength" : 49152, "byteStride" : 32, "target" : 34962}, {"buffer" : 0, "byteOffset" : 60612, "byteLength" : 49152, "byteStride" : 32, "target" : 34962}], "materials" : [{"name" : "Material", "pbrMetallicRoughness" : {"baseColorFactor" : [0, 0, 0, 1], "metallicFactor" : 1, "roughnessFactor" : 1}, "emissiveFactor" : [0.005605343729257584, 0.02624119259417057, 0.04817182943224907], "alphaMode" : "OPAQUE", "doubleSided" : true}, {"name" : "Material", "pbrMetallicRoughness" : {"baseColorFactor" : [0, 0, 0, 1], "metallicFactor" : 1, "roughnessFactor" : 1}, "emissiveFactor" : [0.005605343729257584, 0.02624119259417057, 0.04817182943224907], "alphaMode" : "OPAQUE", "doubleSided" : true}, {"name" : "Material", "pbrMetallicRoughness" : {"baseColorFactor" : [0, 0, 0, 1], "metallicFactor" : 1, "roughnessFactor" : 1}, "emissiveFactor" : [0.005605343729257584, 0.02624119259417057, 0.04817182943224907], "alphaMode" : "OPAQUE", "doubleSided" : true}], "meshes" : [{"primitives" : [{"attributes" : {"POSITION" : 1, "NORMAL" : 2, "TEXCOORD_0" : 3}, "indices" : 0, "material" : 0, "mode" : 4}]}, {"primitives" : [{"attributes" : {"POSITION" : 5, "NORMAL" : 6, "TEXCOORD_0" : 7}, "indices" : 4, "material" : 1, "mode" : 4}]}, {"primitives" : [{"attributes" : {"POSITION" : 9, "NORMAL" : 10, "TEXCOORD_0" : 11}, "indices" : 8, "material" : 2, "mode" : 4}]}], "nodes" : [{"matrix" : [0.5, 0, 0, 0, 0, 0.5, 0, 0, 0, 0, 0.30000001192092896, 0, 0, 0, 0, 1], "mesh" : 0, "name" : "Cirlce letter 1.005"}, {"mesh" : 1, "name" : "Circle.008"}, {"mesh" : 2, "name" : "Circle.009"}], "scene" : 0, "scenes" : [{"nodes" : [0, 1, 2]}]}