{
	"asset":{
		"generator":"Khronos glTF Blender I/O v3.6.28",
		"version":"2.0"
	},
	"scene":0,
	"scenes":[
		{
			"name":"Scene",
			"nodes":[
				0
			]
		}
	],
	"nodes":[
		{
			"mesh":0,
			"name":"Plane.013"
		}
	],
	"materials":[
		{
			"doubleSided":true,
			"emissiveFactor":[
				0.005605343729257584,
				0.02624119259417057,
				0.04817182943224907
			],
			"name":"Material",
			"pbrMetallicRoughness":{
				"baseColorFactor":[
					0,
					0,
					0,
					1
				]
			}
		}
	],
	"meshes":[
		{
			"name":"Plane.022",
			"primitives":[
				{
					"attributes":{
						"POSITION":0,
						"NORMAL":1,
						"TEXCOORD_0":2
					},
					"indices":3,
					"material":0
				}
			]
		}
	],
	"accessors":[
		{
			"bufferView":0,
			"componentType":5126,
			"count":265,
			"max":[
				4.169490337371826,
				1.8521045446395874,
				1.5563745498657227
			],
			"min":[
				-3.5239944458007812,
				-1.8521058559417725,
				-1.5565969944000244
			],
			"type":"VEC3"
		},
		{
			"bufferView":1,
			"componentType":5126,
			"count":265,
			"type":"VEC3"
		},
		{
			"bufferView":2,
			"componentType":5126,
			"count":265,
			"type":"VEC2"
		},
		{
			"bufferView":3,
			"componentType":5123,
			"count":672,
			"type":"SCALAR"
		}
	],
	"bufferViews":[
		{
			"buffer":0,
			"byteLength":3180,
			"byteOffset":0,
			"target":34962
		},
		{
			"buffer":0,
			"byteLength":3180,
			"byteOffset":3180,
			"target":34962
		},
		{
			"buffer":0,
			"byteLength":2120,
			"byteOffset":6360,
			"target":34962
		},
		{
			"buffer":0,
			"byteLength":1344,
			"byteOffset":8480,
			"target":34963
		}
	],
	"buffers":[
		{
			"byteLength":9824,
			"uri":"data:application/octet-stream;base64,"
		}
	]
}
