{"accessors" : [{"bufferView" : 0, "byteOffset" : 0, "componentType" : 5123, "count" : 1536, "type" : "SCALAR", "max" : [1279], "min" : [0]}, {"bufferView" : 1, "byteOffset" : 0, "componentType" : 5126, "count" : 1280, "type" : "VEC3", "max" : [0.9999998211860657, 0.9994669556617737, 0.07446688413619995], "min" : [-0.9999998211860657, -1.0005332231521606, -0.07553327083587646], "name" : "POSITION"}, {"bufferView" : 1, "byteOffset" : 12, "componentType" : 5126, "count" : 1280, "type" : "VEC3", "max" : [0.9987983107566833, 0.9987983107566833, 1.0000044107437134], "min" : [-0.9987983107566833, -0.9987983107566833, -1.0000044107437134], "name" : "NORMAL"}, {"bufferView" : 1, "byteOffset" : 24, "componentType" : 5126, "count" : 1280, "type" : "VEC2", "max" : [0, 2], "min" : [0, 2], "name" : "TEXCOORD_0"}, {"bufferView" : 0, "byteOffset" : 3072, "componentType" : 5123, "count" : 1536, "type" : "SCALAR", "max" : [1279], "min" : [0]}, {"bufferView" : 2, "byteOffset" : 0, "componentType" : 5126, "count" : 1280, "type" : "VEC3", "max" : [0.9026513695716858, 0.9021185040473938, 0.07446688413619995], "min" : [-0.9026513695716858, -0.9031845927238464, -0.07553327083587646], "name" : "POSITION"}, {"bufferView" : 2, "byteOffset" : 12, "componentType" : 5126, "count" : 1280, "type" : "VEC3", "max" : [0.9987983107566833, 0.9987983107566833, 1.0000044107437134], "min" : [-0.9987983107566833, -0.9987983107566833, -1.0000044107437134], "name" : "NORMAL"}, {"bufferView" : 2, "byteOffset" : 24, "componentType" : 5126, "count" : 1280, "type" : "VEC2", "max" : [0, 2], "min" : [0, 2], "name" : "TEXCOORD_0"}], "asset" : {"generator" : "Aspose.3D 24.1.0", "version" : "2.0"}, "buffers" : [{"uri" : "data:application/octet-stream;base64,", "byteLength" : 104460}], "bufferViews" : [{"buffer" : 0, "byteOffset" : 0, "byteLength" : 6144, "target" : 34963}, {"buffer" : 0, "byteOffset" : 6148, "byteLength" : 49152, "byteStride" : 32, "target" : 34962}, {"buffer" : 0, "byteOffset" : 55304, "byteLength" : 49152, "byteStride" : 32, "target" : 34962}], "materials" : [{"name" : "Material", "pbrMetallicRoughness" : {"baseColorFactor" : [0, 0, 0, 1], "metallicFactor" : 1, "roughnessFactor" : 1}, "emissiveFactor" : [0.005605343729257584, 0.02624119259417057, 0.04817182943224907], "alphaMode" : "OPAQUE", "doubleSided" : true}, {"name" : "Material", "pbrMetallicRoughness" : {"baseColorFactor" : [0, 0, 0, 1], "metallicFactor" : 1, "roughnessFactor" : 1}, "emissiveFactor" : [0.005605343729257584, 0.02624119259417057, 0.04817182943224907], "alphaMode" : "OPAQUE", "doubleSided" : true}], "meshes" : [{"primitives" : [{"attributes" : {"POSITION" : 1, "NORMAL" : 2, "TEXCOORD_0" : 3}, "indices" : 0, "material" : 0, "mode" : 4}]}, {"primitives" : [{"attributes" : {"POSITION" : 5, "NORMAL" : 6, "TEXCOORD_0" : 7}, "indices" : 4, "material" : 1, "mode" : 4}]}], "nodes" : [{"mesh" : 0, "name" : "Circle.001"}, {"mesh" : 1, "name" : "Circle.002"}], "scene" : 0, "scenes" : [{"nodes" : [0, 1]}]}