{"accessors" : [{"bufferView" : 0, "byteOffset" : 0, "componentType" : 5123, "count" : 1536, "type" : "SCALAR", "max" : [1211], "min" : [0]}, {"bufferView" : 1, "byteOffset" : 0, "componentType" : 5126, "count" : 1212, "type" : "VEC3", "max" : [0.9999998211860657, 1.0004665851593018, 0.07546645402908325], "min" : [-0.9999998211860657, -0.9995336532592773, -0.07453370094299316], "name" : "POSITION"}, {"bufferView" : 1, "byteOffset" : 12, "componentType" : 5126, "count" : 1212, "type" : "VEC3", "max" : [0.7178277969360352, 0.7178277969360352, 0.7183440327644348], "min" : [-0.7178277969360352, -0.7178277969360352, -0.7183440327644348], "name" : "NORMAL"}, {"bufferView" : 1, "byteOffset" : 24, "componentType" : 5126, "count" : 1212, "type" : "VEC2", "max" : [0, 2], "min" : [0, 2], "name" : "TEXCOORD_0"}], "asset" : {"generator" : "Aspose.3D 24.1.0", "version" : "2.0"}, "buffers" : [{"uri" : "data:application/octet-stream;base64,", "byteLength" : 52232}], "bufferViews" : [{"buffer" : 0, "byteOffset" : 0, "byteLength" : 3072, "target" : 34963}, {"buffer" : 0, "byteOffset" : 3076, "byteLength" : 49152, "byteStride" : 32, "target" : 34962}], "materials" : [{"name" : "Material", "pbrMetallicRoughness" : {"baseColorFactor" : [0, 0, 0, 1], "metallicFactor" : 1, "roughnessFactor" : 1}, "emissiveFactor" : [0.005605343729257584, 0.02624119259417057, 0.04817182943224907], "alphaMode" : "OPAQUE", "doubleSided" : true}], "meshes" : [{"primitives" : [{"attributes" : {"POSITION" : 1, "NORMAL" : 2, "TEXCOORD_0" : 3}, "indices" : 0, "material" : 0, "mode" : 4}]}], "nodes" : [{"mesh" : 0, "name" : "Circle.010"}], "scene" : 0, "scenes" : [{"nodes" : [0]}]}