{"accessors" : [{"bufferView" : 0, "byteOffset" : 0, "componentType" : 5123, "count" : 180, "type" : "SCALAR", "max" : [137], "min" : [0]}, {"bufferView" : 1, "byteOffset" : 0, "componentType" : 5126, "count" : 138, "type" : "VEC3", "max" : [0.7516086101531982, 3.9909040927886963, 0.7853487133979797], "min" : [-0.7483915686607361, -0.7806703448295593, -3.188661575317383], "name" : "POSITION"}, {"bufferView" : 1, "byteOffset" : 12, "componentType" : 5126, "count" : 138, "type" : "VEC3", "max" : [0.8483304977416992, 0.8419933915138245, 0.7278949022293091], "min" : [-0.8483304977416992, -0.7278949022293091, -0.8409741520881653], "name" : "NORMAL"}, {"bufferView" : 1, "byteOffset" : 24, "componentType" : 5126, "count" : 138, "type" : "VEC2", "max" : [0, 2], "min" : [0, 2], "name" : "TEXCOORD_0"}, {"bufferView" : 0, "byteOffset" : 360, "componentType" : 5123, "count" : 1536, "type" : "SCALAR", "max" : [1211], "min" : [0]}, {"bufferView" : 2, "byteOffset" : 0, "componentType" : 5126, "count" : 1212, "type" : "VEC3", "max" : [0.6606650948524475, 0.6608262658119202, 0.07516098022460938], "min" : [-0.6606650948524475, -0.6605040431022644, -0.07483911514282227], "name" : "POSITION"}, {"bufferView" : 2, "byteOffset" : 12, "componentType" : 5126, "count" : 1212, "type" : "VEC3", "max" : [0.7178277969360352, 0.7178277969360352, 0.7183440327644348], "min" : [-0.7178277969360352, -0.7178277969360352, -0.7183440327644348], "name" : "NORMAL"}, {"bufferView" : 2, "byteOffset" : 24, "componentType" : 5126, "count" : 1212, "type" : "VEC2", "max" : [0, 2], "min" : [0, 2], "name" : "TEXCOORD_0"}, {"bufferView" : 0, "byteOffset" : 3432, "componentType" : 5123, "count" : 1536, "type" : "SCALAR", "max" : [1279], "min" : [0]}, {"bufferView" : 3, "byteOffset" : 0, "componentType" : 5126, "count" : 1280, "type" : "VEC3", "max" : [0.9999999403953552, 1.000161051750183, 0.07516103982925415], "min" : [-0.9999999403953552, -0.9998388886451721, -0.07483911514282227], "name" : "POSITION"}, {"bufferView" : 3, "byteOffset" : 12, "componentType" : 5126, "count" : 1280, "type" : "VEC3", "max" : [0.9987983107566833, 0.9987983107566833, 1.0000044107437134], "min" : [-0.9987983107566833, -0.9987983107566833, -1.0000044107437134], "name" : "NORMAL"}, {"bufferView" : 3, "byteOffset" : 24, "componentType" : 5126, "count" : 1280, "type" : "VEC2", "max" : [0, 2], "min" : [0, 2], "name" : "TEXCOORD_0"}, {"bufferView" : 0, "byteOffset" : 6504, "componentType" : 5123, "count" : 1536, "type" : "SCALAR", "max" : [1279], "min" : [0]}, {"bufferView" : 4, "byteOffset" : 0, "componentType" : 5126, "count" : 1280, "type" : "VEC3", "max" : [0.9026514887809753, 0.902812659740448, 0.07516098022460938], "min" : [-0.9026514887809753, -0.9024904370307922, -0.07483911514282227], "name" : "POSITION"}, {"bufferView" : 4, "byteOffset" : 12, "componentType" : 5126, "count" : 1280, "type" : "VEC3", "max" : [0.9987983107566833, 0.9987983107566833, 1.0000044107437134], "min" : [-0.9987983107566833, -0.9987983107566833, -1.0000044107437134], "name" : "NORMAL"}, {"bufferView" : 4, "byteOffset" : 24, "componentType" : 5126, "count" : 1280, "type" : "VEC2", "max" : [0, 2], "min" : [0, 2], "name" : "TEXCOORD_0"}], "asset" : {"generator" : "Aspose.3D 24.1.0", "version" : "2.0"}, "buffers" : [{"uri" : "data:application/octet-stream;base64,", "byteLength" : 162812}], "bufferViews" : [{"buffer" : 0, "byteOffset" : 0, "byteLength" : 9576, "target" : 34963}, {"buffer" : 0, "byteOffset" : 9580, "byteLength" : 5760, "byteStride" : 32, "target" : 34962}, {"buffer" : 0, "byteOffset" : 15344, "byteLength" : 49152, "byteStride" : 32, "target" : 34962}, {"buffer" : 0, "byteOffset" : 64500, "byteLength" : 49152, "byteStride" : 32, "target" : 34962}, {"buffer" : 0, "byteOffset" : 113656, "byteLength" : 49152, "byteStride" : 32, "target" : 34962}], "materials" : [{"name" : "Material", "pbrMetallicRoughness" : {"baseColorFactor" : [0, 0, 0, 1], "metallicFactor" : 1, "roughnessFactor" : 1}, "emissiveFactor" : [0.005605343729257584, 0.02624119259417057, 0.04817182943224907], "alphaMode" : "OPAQUE", "doubleSided" : true}, {"name" : "Material", "pbrMetallicRoughness" : {"baseColorFactor" : [0, 0, 0, 1], "metallicFactor" : 1, "roughnessFactor" : 1}, "emissiveFactor" : [0.005605343729257584, 0.02624119259417057, 0.04817182943224907], "alphaMode" : "OPAQUE", "doubleSided" : true}, {"name" : "Material", "pbrMetallicRoughness" : {"baseColorFactor" : [0, 0, 0, 1], "metallicFactor" : 1, "roughnessFactor" : 1}, "emissiveFactor" : [0.005605343729257584, 0.02624119259417057, 0.04817182943224907], "alphaMode" : "OPAQUE", "doubleSided" : true}, {"name" : "Material", "pbrMetallicRoughness" : {"baseColorFactor" : [0, 0, 0, 1], "metallicFactor" : 1, "roughnessFactor" : 1}, "emissiveFactor" : [0.005605343729257584, 0.02624119259417057, 0.04817182943224907], "alphaMode" : "OPAQUE", "doubleSided" : true}], "meshes" : [{"primitives" : [{"attributes" : {"POSITION" : 1, "NORMAL" : 2, "TEXCOORD_0" : 3}, "indices" : 0, "material" : 0, "mode" : 4}]}, {"primitives" : [{"attributes" : {"POSITION" : 5, "NORMAL" : 6, "TEXCOORD_0" : 7}, "indices" : 4, "material" : 1, "mode" : 4}]}, {"primitives" : [{"attributes" : {"POSITION" : 9, "NORMAL" : 10, "TEXCOORD_0" : 11}, "indices" : 8, "material" : 2, "mode" : 4}]}, {"primitives" : [{"attributes" : {"POSITION" : 13, "NORMAL" : 14, "TEXCOORD_0" : 15}, "indices" : 12, "material" : 3, "mode" : 4}]}], "nodes" : [{"matrix" : [-1.3435888851869829E-08, 0, 0.10000003727774676, 0, 0, 0.10000002384185791, 0, 0, -0.10000003727774676, 0, -1.3435888851869829E-08, 0, 0, 0, 0, 1], "mesh" : 0, "name" : "Circle.013"}, {"mesh" : 1, "name" : "Circle.015"}, {"mesh" : 2, "name" : "Circle.016"}, {"mesh" : 3, "name" : "Circle.017"}], "scene" : 0, "scenes" : [{"nodes" : [0, 1, 2, 3]}]}