{"accessors" : [{"bufferView" : 0, "byteOffset" : 0, "componentType" : 5123, "count" : 1536, "type" : "SCALAR", "max" : [1211], "min" : [0]}, {"bufferView" : 1, "byteOffset" : 0, "componentType" : 5126, "count" : 1212, "type" : "VEC3", "max" : [0.9999999403953552, 1.0002368688583374, 0.07523679733276367], "min" : [-0.9999999403953552, -0.9997631311416626, -0.07476335763931274], "name" : "POSITION"}, {"bufferView" : 1, "byteOffset" : 12, "componentType" : 5126, "count" : 1212, "type" : "VEC3", "max" : [0.7178277969360352, 0.7178277969360352, 0.7183440327644348], "min" : [-0.7178277969360352, -0.7178277969360352, -0.7183440327644348], "name" : "NORMAL"}, {"bufferView" : 1, "byteOffset" : 24, "componentType" : 5126, "count" : 1212, "type" : "VEC2", "max" : [0, 2], "min" : [0, 2], "name" : "TEXCOORD_0"}, {"bufferView" : 0, "byteOffset" : 3072, "componentType" : 5123, "count" : 180, "type" : "SCALAR", "max" : [137], "min" : [0]}, {"bufferView" : 2, "byteOffset" : 0, "componentType" : 5126, "count" : 138, "type" : "VEC3", "max" : [0.7523658871650696, 3.991661310195923, 0.7853487133979797], "min" : [-0.7476340532302856, -0.7799128890037537, -3.188661575317383], "name" : "POSITION"}, {"bufferView" : 2, "byteOffset" : 12, "componentType" : 5126, "count" : 138, "type" : "VEC3", "max" : [0.8483304977416992, 0.8419933915138245, 0.7278949022293091], "min" : [-0.8483304977416992, -0.7278949022293091, -0.8409741520881653], "name" : "NORMAL"}, {"bufferView" : 2, "byteOffset" : 24, "componentType" : 5126, "count" : 138, "type" : "VEC2", "max" : [0, 2], "min" : [0, 2], "name" : "TEXCOORD_0"}, {"bufferView" : 0, "byteOffset" : 3432, "componentType" : 5123, "count" : 1536, "type" : "SCALAR", "max" : [1211], "min" : [0]}, {"bufferView" : 3, "byteOffset" : 0, "componentType" : 5126, "count" : 1212, "type" : "VEC3", "max" : [0.6606650948524475, 0.6609020233154297, 0.0752367377281189], "min" : [-0.6606650948524475, -0.6604282855987549, -0.07476335763931274], "name" : "POSITION"}, {"bufferView" : 3, "byteOffset" : 12, "componentType" : 5126, "count" : 1212, "type" : "VEC3", "max" : [0.7178277969360352, 0.7178277969360352, 0.7183440327644348], "min" : [-0.7178277969360352, -0.7178277969360352, -0.7183440327644348], "name" : "NORMAL"}, {"bufferView" : 3, "byteOffset" : 24, "componentType" : 5126, "count" : 1212, "type" : "VEC2", "max" : [0, 2], "min" : [0, 2], "name" : "TEXCOORD_0"}], "asset" : {"generator" : "Aspose.3D 24.1.0", "version" : "2.0"}, "buffers" : [{"uri" : "data:application/octet-stream;base64,", "byteLength" : 110584}], "bufferViews" : [{"buffer" : 0, "byteOffset" : 0, "byteLength" : 6504, "target" : 34963}, {"buffer" : 0, "byteOffset" : 6508, "byteLength" : 49152, "byteStride" : 32, "target" : 34962}, {"buffer" : 0, "byteOffset" : 55664, "byteLength" : 5760, "byteStride" : 32, "target" : 34962}, {"buffer" : 0, "byteOffset" : 61428, "byteLength" : 49152, "byteStride" : 32, "target" : 34962}], "materials" : [{"name" : "Material", "pbrMetallicRoughness" : {"baseColorFactor" : [0, 0, 0, 1], "metallicFactor" : 1, "roughnessFactor" : 1}, "emissiveFactor" : [0.005605343729257584, 0.02624119259417057, 0.04817182943224907], "alphaMode" : "OPAQUE", "doubleSided" : true}, {"name" : "Material", "pbrMetallicRoughness" : {"baseColorFactor" : [0, 0, 0, 1], "metallicFactor" : 1, "roughnessFactor" : 1}, "emissiveFactor" : [0.005605343729257584, 0.02624119259417057, 0.04817182943224907], "alphaMode" : "OPAQUE", "doubleSided" : true}, {"name" : "Material", "pbrMetallicRoughness" : {"baseColorFactor" : [0, 0, 0, 1], "metallicFactor" : 1, "roughnessFactor" : 1}, "emissiveFactor" : [0.005605343729257584, 0.02624119259417057, 0.04817182943224907], "alphaMode" : "OPAQUE", "doubleSided" : true}], "meshes" : [{"primitives" : [{"attributes" : {"POSITION" : 1, "NORMAL" : 2, "TEXCOORD_0" : 3}, "indices" : 0, "material" : 0, "mode" : 4}]}, {"primitives" : [{"attributes" : {"POSITION" : 5, "NORMAL" : 6, "TEXCOORD_0" : 7}, "indices" : 4, "material" : 1, "mode" : 4}]}, {"primitives" : [{"attributes" : {"POSITION" : 9, "NORMAL" : 10, "TEXCOORD_0" : 11}, "indices" : 8, "material" : 2, "mode" : 4}]}], "nodes" : [{"mesh" : 0, "name" : "Circle.011"}, {"matrix" : [-1.3435888851869829E-08, 0, 0.10000003727774676, 0, 0, 0.10000002384185791, 0, 0, -0.10000003727774676, 0, -1.3435888851869829E-08, 0, 0, 0, 0, 1], "mesh" : 1, "name" : "Circle.012"}, {"mesh" : 2, "name" : "Circle.014"}], "scene" : 0, "scenes" : [{"nodes" : [0, 1, 2]}]}